<svg xmlns="http://www.w3.org/2000/svg" width="467.315" height="108.928" viewBox="0 0 467.315 108.928">
  <g id="グループ_5" data-name="グループ 5" transform="translate(-240.965 234.432)">
    <path id="パス_8" data-name="パス 8" d="M7.147-17.215h4.228V-4.558a4.765,4.765,0,0,1-.387,1.936A4.043,4.043,0,0,1,9.826-1.1a5.684,5.684,0,0,1-1.936,1A9.139,9.139,0,0,1,5.18.254,7.9,7.9,0,0,1,3.58.1,8.52,8.52,0,0,1,2.209-.3,9.677,9.677,0,0,1,1.016-.857Q.457-1.168-.051-1.5L1.143-3.009a4.839,4.839,0,0,0,.647.533,5.567,5.567,0,0,0,.844.482,5.89,5.89,0,0,0,1,.355,4.341,4.341,0,0,0,1.1.14A2.537,2.537,0,0,0,6.5-2.082a2.015,2.015,0,0,0,.647-1.574Zm17.9,17.6a11.021,11.021,0,0,1-3.885-.673A9.441,9.441,0,0,1,18.04-2.177a8.783,8.783,0,0,1-2.076-2.882,8.781,8.781,0,0,1-.755-3.663,8.431,8.431,0,0,1,.755-3.586,8.412,8.412,0,0,1,2.076-2.8,9.5,9.5,0,0,1,3.123-1.815,11.409,11.409,0,0,1,3.885-.647,11.255,11.255,0,0,1,3.878.654,9.682,9.682,0,0,1,3.123,1.822,8.484,8.484,0,0,1,2.088,2.787A8.228,8.228,0,0,1,34.9-8.76a9.457,9.457,0,0,1-.343,2.583,8.585,8.585,0,0,1-.978,2.228,8.469,8.469,0,0,1-1.523,1.815A9.166,9.166,0,0,1,30.069-.774,10.5,10.5,0,0,1,27.7.083,11.563,11.563,0,0,1,25.048.381Zm0-1.447a4.241,4.241,0,0,0,2.222-.578,4.871,4.871,0,0,0,1.612-1.593,7.891,7.891,0,0,0,.984-2.418A13.139,13.139,0,0,0,30.2-8.722a12.461,12.461,0,0,0-.336-3,7.433,7.433,0,0,0-.984-2.336,4.692,4.692,0,0,0-1.612-1.523,4.433,4.433,0,0,0-2.222-.546,4.459,4.459,0,0,0-2.234.546A4.692,4.692,0,0,0,21.2-14.054a7.33,7.33,0,0,0-.978,2.336,12.69,12.69,0,0,0-.33,3,13.381,13.381,0,0,0,.33,3.066A7.782,7.782,0,0,0,21.2-3.237a4.871,4.871,0,0,0,1.612,1.593A4.266,4.266,0,0,0,25.048-1.066Zm26.5-16.148v1.473H42.91v5.675h7.173v1.473H42.91v6.83h8.633V0H38.683V-17.215Zm17.291,0v1.473H62.88V0H58.665V-15.742H52.7v-1.473ZM77.721.254a9.139,9.139,0,0,1-2.71-.362,6.137,6.137,0,0,1-1.974-1,4.882,4.882,0,0,1-1.295-1.517,6.128,6.128,0,0,1-.66-1.936h2.933a5.125,5.125,0,0,0,.444,1.206,3.507,3.507,0,0,0,.743.971,3.3,3.3,0,0,0,1.066.647A3.994,3.994,0,0,0,77.7-1.5a4.988,4.988,0,0,0,1.06-.114,2.969,2.969,0,0,0,.946-.375,2.045,2.045,0,0,0,.673-.673,1.917,1.917,0,0,0,.254-1.022,2.411,2.411,0,0,0-.394-1.358,4.412,4.412,0,0,0-1.041-1.085,9.807,9.807,0,0,0-1.473-.908q-.825-.419-1.688-.844t-1.688-.9A8.571,8.571,0,0,1,72.871-9.82a4.8,4.8,0,0,1-1.041-1.308,3.462,3.462,0,0,1-.394-1.669,4.063,4.063,0,0,1,.451-1.9,4.451,4.451,0,0,1,1.3-1.511,6.443,6.443,0,0,1,2.082-1,9.96,9.96,0,0,1,2.806-.362,7.317,7.317,0,0,1,2.349.355,6.242,6.242,0,0,1,1.86.984,5.96,5.96,0,0,1,1.352,1.473,7.106,7.106,0,0,1,.838,1.809H81.821a9.13,9.13,0,0,0-.533-1.168,3.9,3.9,0,0,0-.749-.978,3.3,3.3,0,0,0-1.079-.667,4.155,4.155,0,0,0-1.511-.248,3.915,3.915,0,0,0-1.39.216,2.6,2.6,0,0,0-.908.552,2.031,2.031,0,0,0-.5.749,2.319,2.319,0,0,0-.152.806,2.066,2.066,0,0,0,.406,1.244A4.756,4.756,0,0,0,76.483-11.4,11.8,11.8,0,0,0,78-10.48q.851.438,1.733.882t1.733.933a9.4,9.4,0,0,1,1.517,1.073A5.057,5.057,0,0,1,84.056-6.3a3.166,3.166,0,0,1,.406,1.6,4.468,4.468,0,0,1-.432,1.955,4.394,4.394,0,0,1-1.282,1.568A6.375,6.375,0,0,1,80.634-.127,10.111,10.111,0,0,1,77.721.254ZM88.3-17.215h4.228v11.07a5.536,5.536,0,0,0,.311,1.866,4.616,4.616,0,0,0,.889,1.53,4.207,4.207,0,0,0,1.4,1.035,4.329,4.329,0,0,0,1.847.381,4.225,4.225,0,0,0,1.815-.381,4.157,4.157,0,0,0,1.384-1.035,4.676,4.676,0,0,0,.882-1.53,5.536,5.536,0,0,0,.311-1.866v-11.07h2.666v11.07a7.039,7.039,0,0,1-.451,2.52,5.4,5.4,0,0,1-1.416,2.076A6.932,6.932,0,0,1,99.684-.14a11.2,11.2,0,0,1-3.631.521A9.9,9.9,0,0,1,92.708-.14a7.086,7.086,0,0,1-2.431-1.416A5.907,5.907,0,0,1,88.8-3.644a6.487,6.487,0,0,1-.5-2.539Zm34.646,0v1.473h-5.954V0h-4.215V-15.742h-5.967v-1.473Zm11.007-.355L142.022,0h-4.316l-2.158-4.7h-6.69L126.6,0h-2.869l8.392-17.57ZM129.657-6.3h5.18l-2.552-5.561Zm14.777-10.918h7.389a10.955,10.955,0,0,1,2.723.317,7.122,7.122,0,0,1,2.126.9,4.379,4.379,0,0,1,1.384,1.39,3.4,3.4,0,0,1,.5,1.8,4.546,4.546,0,0,1-.133,1.13,3.169,3.169,0,0,1-.438.978,4.167,4.167,0,0,1-.806.876,9.176,9.176,0,0,1-1.238.851,6.01,6.01,0,0,1,1.4.641,4.827,4.827,0,0,1,1.1.939,4.21,4.21,0,0,1,.724,1.193,3.724,3.724,0,0,1,.26,1.39,3.984,3.984,0,0,1-.463,1.892,4.6,4.6,0,0,1-1.32,1.523,6.682,6.682,0,0,1-2.057,1.022,8.9,8.9,0,0,1-2.66.375h-8.48Zm4.228,7.465h2.78a3.227,3.227,0,0,0,1.2-.209,2.5,2.5,0,0,0,.889-.584,2.512,2.512,0,0,0,.552-.9,3.264,3.264,0,0,0,.19-1.13,3.074,3.074,0,0,0-.241-1.231,2.488,2.488,0,0,0-.736-.958,3.566,3.566,0,0,0-1.257-.622,6.479,6.479,0,0,0-1.8-.222h-1.574Zm0,7.985H151a6.29,6.29,0,0,0,1.777-.222,3.639,3.639,0,0,0,1.238-.609,2.388,2.388,0,0,0,.724-.927,2.91,2.91,0,0,0,.235-1.174,4.023,4.023,0,0,0-.216-1.339,2.652,2.652,0,0,0-.7-1.073,3.333,3.333,0,0,0-1.282-.711,6.412,6.412,0,0,0-1.936-.254h-2.171Zm14.257-15.45h4.215V0h-4.215Zm8.531,0h2.7l9.813,10.943V-17.215h2.641V.254h-1.815L174.129-11.832V0H171.45ZM200.269.381a11.021,11.021,0,0,1-3.885-.673,9.441,9.441,0,0,1-3.123-1.885,8.783,8.783,0,0,1-2.076-2.882,8.781,8.781,0,0,1-.755-3.663,8.431,8.431,0,0,1,.755-3.586,8.412,8.412,0,0,1,2.076-2.8,9.5,9.5,0,0,1,3.123-1.815,11.409,11.409,0,0,1,3.885-.647,11.255,11.255,0,0,1,3.878.654,9.682,9.682,0,0,1,3.123,1.822,8.484,8.484,0,0,1,2.088,2.787,8.228,8.228,0,0,1,.762,3.548,9.457,9.457,0,0,1-.343,2.583,8.585,8.585,0,0,1-.978,2.228,8.469,8.469,0,0,1-1.523,1.815A9.166,9.166,0,0,1,205.29-.774a10.5,10.5,0,0,1-2.368.857A11.563,11.563,0,0,1,200.269.381Zm0-1.447a4.241,4.241,0,0,0,2.222-.578A4.87,4.87,0,0,0,204.1-3.237a7.891,7.891,0,0,0,.984-2.418,13.139,13.139,0,0,0,.336-3.066,12.461,12.461,0,0,0-.336-3,7.433,7.433,0,0,0-.984-2.336,4.692,4.692,0,0,0-1.612-1.523,4.433,4.433,0,0,0-2.222-.546,4.459,4.459,0,0,0-2.234.546,4.692,4.692,0,0,0-1.612,1.523,7.33,7.33,0,0,0-.978,2.336,12.69,12.69,0,0,0-.33,3,13.381,13.381,0,0,0,.33,3.066,7.782,7.782,0,0,0,.978,2.418,4.87,4.87,0,0,0,1.612,1.593A4.266,4.266,0,0,0,200.269-1.066ZM220.022.254a9.139,9.139,0,0,1-2.71-.362,6.137,6.137,0,0,1-1.974-1,4.882,4.882,0,0,1-1.295-1.517,6.128,6.128,0,0,1-.66-1.936h2.933a5.126,5.126,0,0,0,.444,1.206,3.507,3.507,0,0,0,.743.971,3.3,3.3,0,0,0,1.066.647A3.994,3.994,0,0,0,220-1.5a4.988,4.988,0,0,0,1.06-.114A2.969,2.969,0,0,0,222-1.987a2.045,2.045,0,0,0,.673-.673,1.917,1.917,0,0,0,.254-1.022,2.411,2.411,0,0,0-.394-1.358A4.412,4.412,0,0,0,221.5-6.125a9.808,9.808,0,0,0-1.473-.908q-.825-.419-1.688-.844t-1.688-.9a8.571,8.571,0,0,1-1.473-1.047,4.8,4.8,0,0,1-1.041-1.308,3.462,3.462,0,0,1-.394-1.669,4.063,4.063,0,0,1,.451-1.9,4.451,4.451,0,0,1,1.3-1.511,6.443,6.443,0,0,1,2.082-1,9.96,9.96,0,0,1,2.806-.362,7.317,7.317,0,0,1,2.349.355,6.242,6.242,0,0,1,1.86.984,5.96,5.96,0,0,1,1.352,1.473,7.105,7.105,0,0,1,.838,1.809h-2.653a9.13,9.13,0,0,0-.533-1.168,3.9,3.9,0,0,0-.749-.978,3.3,3.3,0,0,0-1.079-.667,4.155,4.155,0,0,0-1.511-.248,3.916,3.916,0,0,0-1.39.216,2.6,2.6,0,0,0-.908.552,2.031,2.031,0,0,0-.5.749,2.319,2.319,0,0,0-.152.806,2.066,2.066,0,0,0,.406,1.244,4.756,4.756,0,0,0,1.073,1.041,11.8,11.8,0,0,0,1.517.92q.851.438,1.733.882t1.733.933a9.4,9.4,0,0,1,1.517,1.073A5.057,5.057,0,0,1,226.357-6.3a3.166,3.166,0,0,1,.406,1.6,4.467,4.467,0,0,1-.432,1.955,4.394,4.394,0,0,1-1.282,1.568,6.375,6.375,0,0,1-2.114,1.047A10.111,10.111,0,0,1,220.022.254Zm14.8-8.455V0H230.6V-17.215h4.228v7.541h6.919v-7.541h4.189V0h-4.189V-8.2Zm15.425-9.014h4.215V0H250.25ZM268.125.381a11.021,11.021,0,0,1-3.885-.673,9.441,9.441,0,0,1-3.123-1.885,8.783,8.783,0,0,1-2.076-2.882,8.781,8.781,0,0,1-.755-3.663,8.431,8.431,0,0,1,.755-3.586,8.411,8.411,0,0,1,2.076-2.8,9.505,9.505,0,0,1,3.123-1.815,11.409,11.409,0,0,1,3.885-.647,11.255,11.255,0,0,1,3.878.654,9.682,9.682,0,0,1,3.123,1.822,8.484,8.484,0,0,1,2.088,2.787,8.228,8.228,0,0,1,.762,3.548,9.457,9.457,0,0,1-.343,2.583,8.585,8.585,0,0,1-.978,2.228,8.47,8.47,0,0,1-1.523,1.815,9.166,9.166,0,0,1-1.987,1.358,10.5,10.5,0,0,1-2.368.857A11.563,11.563,0,0,1,268.125.381Zm0-1.447a4.241,4.241,0,0,0,2.222-.578,4.871,4.871,0,0,0,1.612-1.593,7.891,7.891,0,0,0,.984-2.418,13.139,13.139,0,0,0,.336-3.066,12.462,12.462,0,0,0-.336-3,7.432,7.432,0,0,0-.984-2.336,4.692,4.692,0,0,0-1.612-1.523,4.433,4.433,0,0,0-2.222-.546,4.459,4.459,0,0,0-2.234.546,4.692,4.692,0,0,0-1.612,1.523,7.33,7.33,0,0,0-.978,2.336,12.689,12.689,0,0,0-.33,3,13.38,13.38,0,0,0,.33,3.066,7.783,7.783,0,0,0,.978,2.418,4.871,4.871,0,0,0,1.612,1.593A4.266,4.266,0,0,0,268.125-1.066ZM281.76-17.215h6.475a10.941,10.941,0,0,1,2.926.349,6.174,6.174,0,0,1,2.082.978,4.113,4.113,0,0,1,1.25,1.492,4.246,4.246,0,0,1,.419,1.879,3.434,3.434,0,0,1-.286,1.39,4.277,4.277,0,0,1-.8,1.206,5.393,5.393,0,0,1-1.244.978,8.015,8.015,0,0,1-1.606.7L297.108,0h-4.6l-5.776-7.782h-.749V0H281.76Zm4.228,7.922h.914a4.592,4.592,0,0,0,1.435-.216,3.448,3.448,0,0,0,1.143-.616,2.8,2.8,0,0,0,.755-.984,3.082,3.082,0,0,0,.273-1.32,3.626,3.626,0,0,0-.209-1.257,3.022,3.022,0,0,0-.578-.984,2.548,2.548,0,0,0-.889-.641,2.779,2.779,0,0,0-1.13-.229h-1.714Zm12.721-7.922h4.215V0h-4.215Z" transform="translate(378 -128)" fill="#59c1bd"/>
    <path id="パス_7" data-name="パス 7" d="M27.931-24.963V-40.757c1.8-.53,2.491-.9,2.491-1.431,0-.689-1.166-1.007-5.088-1.431-.9-.106-2.332-.265-4.24-.477a50.835,50.835,0,0,1,.424,7.632V.371H6.943a16.193,16.193,0,0,1-4.611-.53l.424,2.014a18.859,18.859,0,0,1,4.187-.371H51.2c.318,0,.53-.106.53-.318a1.091,1.091,0,0,0-.265-.477C48.6-1.908,47.7-2.65,44.679-5.035,42.718-2.756,42.135-2.067,40.174.371H27.931V-23.85H47.859c.371,0,.636-.159.636-.371,0-.106-.106-.265-.318-.53-2.7-2.332-3.6-3.021-6.519-5.353l-4.293,5.141Zm75.737-8.586c.318,0,.477-.106.477-.265a1.091,1.091,0,0,0-.265-.477c-1.643-1.378-1.8-1.484-3.71-2.968a2.857,2.857,0,0,0,.689-1.8c0-1.908-1.8-2.968-6.625-4.134l-.265.424A11.735,11.735,0,0,1,96.407-37.9c.424,1.378.689,1.7,1.537,1.8l-1.325,1.431H91.9v-1.431c0-.636,0-.636.053-5.989,1.325-.477,1.8-.795,1.8-1.166,0-.265-.212-.424-.583-.583-.53-.159-.848-.212-6.678-.848a45.52,45.52,0,0,1,.371,6.413c0,1.219,0,2.014.053,3.6H83.369c-2.6-1.59-3.392-2.014-6.042-3.392l.106,2.65-.159-.212C75.631-37.153,75.1-37.63,73.4-39.167c-1.166,1.378-1.484,1.749-2.7,3.127H69.377v-5.989c1.484-.477,2.12-.848,2.12-1.325,0-.53-.742-.689-4.293-1.007-.8-.053-2.014-.159-3.551-.318a37.765,37.765,0,0,1,.318,5.618v3.021H59.678a11.91,11.91,0,0,1-3.392-.424l.318,1.855a13.7,13.7,0,0,1,3.074-.318h4.293v8.056H58.565a11.311,11.311,0,0,1-3.339-.424l.318,1.855a10.366,10.366,0,0,1,3.021-.318h6.307V-7.95a14.758,14.758,0,0,1-3.127-5.3c.371-2.279.53-3.392.9-6.678,1.7-.636,2.014-.8,2.014-1.219,0-.583,0-.583-7.42-1.484.053,1.272.106,1.749.106,2.7A99.163,99.163,0,0,1,56.6-8.692,48.905,48.905,0,0,1,53.689,3.286l.583.318a31.965,31.965,0,0,0,7.155-15.1C63.441-5.035,66.621-1.325,71.921.9c3.445,1.431,7.844,1.908,17.808,1.908,2.385,0,7.049-.053,9.54-.106h1.537c1.378,0,1.484-.106,1.537-.9a6.14,6.14,0,0,1,2.6-4.876V-3.6a120.447,120.447,0,0,1-12.667.848c-4.293.159-8.109.265-9.54.265-5.512,0-9.858-.636-12.773-1.855V-16.589h7a.558.558,0,0,0,.53-.212v2.968a15.826,15.826,0,0,1-4.717.954c1.855,5.724,2.385,7,2.915,7s.636-.424.8-2.385a89.412,89.412,0,0,0,11.713-8.586l-.212-.477c-3.074,1.219-3.922,1.537-5.353,2.014V-33.549h4.346C87.344-25.758,88.4-20.14,90.206-15.9A52.953,52.953,0,0,1,80.189-4.717l.424.53c5.3-2.915,8.321-5.088,11.395-8.321,3.021,4.77,6.36,7.791,8.692,7.791a2.664,2.664,0,0,0,2.6-2.544c0-.636-.106-.9-.742-1.855a2.945,2.945,0,0,1-.583-1.643,6.406,6.406,0,0,1,.212-1.537l1.537-8.321-.53-.212c-1.643,3.975-2.173,5.194-4.081,9.01a20.855,20.855,0,0,1-3.763-4.664c2.173-3.074,3.233-5.035,5.671-10.388,1.59-.212,2.12-.424,2.12-.848,0-.53-.583-.8-6.466-2.968a36.447,36.447,0,0,1-3.286,9.434c-1.007-3.816-1.325-6.466-1.484-12.3ZM77.433-35.033c.053,1.431.053,1.961.053,3.551v5.194l-.159-.212c-1.7-1.59-2.173-2.067-3.975-3.6-1.113,1.378-1.431,1.8-2.6,3.233H69.377v-8.056h7.632Zm.053,9.169v8.9l-.212-.318c-1.537-1.59-2.014-2.067-3.657-3.6-1.06,1.378-1.378,1.8-2.491,3.18H69.96v-8.056h7.1Zm50.3,3.074c1.59-1.113,1.59-1.113,1.59-1.484,0-.318-.159-.583-.689-.954-.636-.424-.636-.424-1.272-.9a36.952,36.952,0,0,0,7.526-7.685h21.889c.371,0,.583-.106.583-.318,0-.106-.106-.265-.318-.424-2.544-2.12-3.339-2.756-5.936-4.664-1.643,1.855-2.12,2.438-3.869,4.293h-11.5a51.067,51.067,0,0,0,3.657-5.936c2.279-.424,2.544-.53,2.544-1.113,0-.8-.689-1.007-8.533-2.6a41.561,41.561,0,0,1-2.7,9.752,45.825,45.825,0,0,1-3.975,8.268c-.742-.53-1.113-.795-2.279-1.59-1.06,1.325-1.378,1.7-2.385,2.915h-3.551c.106-1.166.159-2.6.265-5.618,0-.53,0-.53.053-1.961h10.494c.318,0,.53-.159.53-.318a.773.773,0,0,0-.265-.424c-1.961-1.7-2.544-2.173-4.558-3.763-1.378,1.537-1.749,1.961-3.074,3.392h-1.749v-7.261c1.7-.583,2.332-1.007,2.332-1.431a.784.784,0,0,0-.424-.583c-.848-.477-1.166-.53-7.9-1.06a28.482,28.482,0,0,1,.212,3.71v6.625h-3.445a28.7,28.7,0,0,1-3.392-.371l.53,1.749a15.96,15.96,0,0,1,2.915-.265h2.173c-.106,19.186-1.7,27.878-6.519,36.3l.53.371a26.793,26.793,0,0,0,4.293-4.982,37.325,37.325,0,0,0,4.611-9.487,65.467,65.467,0,0,0,2.279-13.515h4.028c-.53,11.978-1.06,17.649-1.8,19.928-.371,1.166-.636,1.378-1.431,1.378a44.194,44.194,0,0,1-5.406-.53l-.053.689c2.067.8,2.809,1.272,3.286,2.067a6.69,6.69,0,0,1,.795,2.809c.053.954.159,1.113.795,1.113a9.571,9.571,0,0,0,2.014-.265,6.062,6.062,0,0,0,4.5-3.445c1.007-2.067,1.7-7.367,2.226-16.642a41.44,41.44,0,0,0,6.042-2.809v11.66c0,3.71-.159,8.162-.424,11.448,0,.848.371,1.166,1.378,1.166a27.4,27.4,0,0,0,3.869-.371c.689-.159.9-.424.954-1.219V2.756c-.106-2.65-.106-2.65-.159-11.342V-23.108c1.7-1.219,2.544-1.8,2.6-1.8a56.312,56.312,0,0,0,1.007,8.745C144-9.381,147.34-2.332,151.1,1.643c.9.9,1.113,1.113,1.431,1.113.212,0,.318-.159.477-.477a8.139,8.139,0,0,1,5.194-5.247l.053-.477a25.148,25.148,0,0,1-8.321-5.777,24.513,24.513,0,0,1-4.664-6.784,77.908,77.908,0,0,0,7.473-4.664c.424-.265,1.113-.742,2.014-1.325,1.961-.159,1.961-.159,2.12-.318a.536.536,0,0,0,.212-.371c0-.636-1.378-1.484-6.837-4.134a43.106,43.106,0,0,1-5.565,9.487,36.42,36.42,0,0,1-2.067-8.374c1.537-1.219,2.226-1.749,4.134-3.392,2.173-.265,2.173-.265,2.491-.477a.464.464,0,0,0,.318-.477c0-.53-.689-.9-4.134-2.173q-1.113-.4-3.339-1.272c-2.7,5.141-8.957,11.766-14.628,15.529ZM183.539.53c5.565-.742,8.957-1.643,12.243-3.18,7.685-3.551,11.925-9.7,11.925-17.384C207.707-30.528,199.28-38,187.461-38c-7.9,0-15.423,3.286-19.981,8.692-2.756,3.233-4.452,7.261-4.452,10.6a10.178,10.178,0,0,0,2.067,6.095c1.537,1.908,1.961,2.65,2.279,3.922a13.075,13.075,0,0,0,1.219,3.5,3.488,3.488,0,0,0,2.862,1.537c2.65,0,5.724-2.915,9.169-8.639,3.816-6.413,6.519-13.833,6.519-18.073,0-2.067-.583-3.5-2.438-5.671a16.49,16.49,0,0,1,2.12-.106c9.116,0,14.628,5.406,14.628,14.469a19.721,19.721,0,0,1-5.3,13.939C192.973-4.293,189-1.961,183.327-.212Zm.106-36.411a5.075,5.075,0,0,1,.424,1.166,6.089,6.089,0,0,1,.212,1.749c0,2.332-1.59,6.731-4.24,11.713-3.445,6.519-6.943,10.918-8.692,10.918-1.8,0-3.6-3.763-3.6-7.42a18.072,18.072,0,0,1,5.671-12.614A19.218,19.218,0,0,1,183.645-35.881Zm74.836,21.518c-2.968,3.339-4.187,4.452-6.837,6.148A26.68,26.68,0,0,1,237.6-3.657c-4.982,0-7.261-2.279-7.261-7.367,0-7.208,1.908-20.034,3.5-23.585a4.918,4.918,0,0,0,.636-2.226c0-1.378-1.06-2.65-3.392-3.869a15.487,15.487,0,0,0-6.731-1.908,2.669,2.669,0,0,0-1.7.53c3.445,1.484,4.24,2.756,4.24,6.519,0,1.325-.053,2.809-.106,4.4-.636,12.3-.689,13.727-.689,17.013,0,5.724.583,9.063,2.067,11.395,1.908,3.074,5.406,4.77,9.8,4.77,6.36,0,12.72-3.445,17.119-9.222,1.113-1.431,1.325-1.8,3.233-5.459a10.994,10.994,0,0,1,.689-1.325Zm10.388-16.112c2.279,3.975,4.876,5.618,9.063,5.618a19.742,19.742,0,0,0,3.6-.371c-.106,3.233-.159,6.466-.265,9.646-4.929,2.385-7,3.71-9.328,5.989a5.3,5.3,0,0,0-1.908,3.5,2.537,2.537,0,0,0,1.007,2.067,3.874,3.874,0,0,0,2.12.795c1.961.424,2.968,1.166,5.141,3.71.9,1.007.9,1.007,1.113,1.272a2.571,2.571,0,0,0,1.855.795,3.909,3.909,0,0,0,3.021-1.8,7.28,7.28,0,0,0,1.484-4.717c0-.689-.053-1.484-.106-2.385-.265-4.982-.265-4.982-.318-7.367A27.487,27.487,0,0,1,298.5-17.6c4.929,0,7.632,2.173,7.632,6.095,0,4.4-2.809,7.42-6.943,7.42-3.18,0-5.777-1.961-8.109-6.095l-.583.212A15.992,15.992,0,0,0,293.355-3.5a9.987,9.987,0,0,0,8.109,4.24A10.239,10.239,0,0,0,311.8-9.7c0-6.254-5.035-10.176-13.038-10.176A37.325,37.325,0,0,0,285.3-17.066c.053-4.77.053-5.83.265-8.851a41.118,41.118,0,0,0,7.261-2.332c2.491-1.06,3.551-1.908,3.551-2.915a1.723,1.723,0,0,0-.583-1.325A5.918,5.918,0,0,0,292.56-33.6a3.188,3.188,0,0,0-2.014.9,13.7,13.7,0,0,1-4.5,2.544c.318-3.074.742-4.77,1.59-6.254a3.212,3.212,0,0,0,.742-1.908,2.989,2.989,0,0,0-1.961-2.544,16.675,16.675,0,0,0-6.731-1.484,4.04,4.04,0,0,0-3.021,1.007c2.385.477,3.6,1.219,4.24,2.544.477,1.007.689,2.915.689,6.943,0,1.06,0,1.7-.053,3.021a22.267,22.267,0,0,1-5.512.8,8.686,8.686,0,0,1-6.678-2.862Zm12.19,18.921c0,1.643-.265,6.148-.371,7-.159,1.007-.371,1.272-1.166,1.272a9.637,9.637,0,0,1-3.816-1.06c-.53-.318-.795-.689-.795-1.06C274.911-6.625,277.561-9.328,281.059-11.554Zm18.815-24.38c2.968.583,4.505,1.325,6.1,2.862a5.4,5.4,0,0,1,1.537,2.385c0,.53-2.438,2.067-6.519,4.187l.212.477a41.281,41.281,0,0,1,6.572-1.007,5.842,5.842,0,0,1,1.749.318,5.168,5.168,0,0,0,1.7.371c1.7,0,2.756-1.113,2.756-3.021,0-2.067-1.325-3.975-3.763-5.353a15.109,15.109,0,0,0-7.95-1.908,20.506,20.506,0,0,0-2.385.106ZM337.239,4.717c6.89-2.014,10.971-4.24,14.31-7.844a26.157,26.157,0,0,0,6.731-17.914c0-9.275-4.134-15.9-9.911-15.9A8.36,8.36,0,0,0,341.8-33.92c-2.7,2.915-4.664,7-6.625,13.939h-.053c-.106-1.113-.159-1.643-.159-2.279a26.819,26.819,0,0,1,4.4-14.045,3.583,3.583,0,0,0,.9-2.226c0-1.272-.848-2.491-2.65-3.869a10.538,10.538,0,0,0-5.618-2.279,3.336,3.336,0,0,0-1.06.212c1.961,1.007,2.968,2.332,2.968,3.922a19.241,19.241,0,0,1-.583,4.134c-1.59,7.049-2.12,10.812-2.12,14.946a21.37,21.37,0,0,0,1.537,8.639c.795,1.7,1.908,2.544,3.286,2.544a2.455,2.455,0,0,0,2.438-2.65c0-.212-.053-.9-.106-1.59a19.331,19.331,0,0,1-.212-3.127,31.413,31.413,0,0,1,2.438-11.342c1.7-3.922,3.922-6.042,6.307-6.042,1.537,0,2.756.9,3.6,2.809,1.007,2.014,1.59,5.83,1.59,9.964a32.831,32.831,0,0,1-3.445,15.317c-2.438,4.558-6.042,7.95-11.66,11.077Z" transform="translate(350 -167)" fill="#5a5d5d"/>
    <g id="グループ_6" data-name="グループ 6" transform="translate(23.366 37.489)">
      <g id="グループ_3" data-name="グループ 3" transform="translate(219.698 -270.458)">
        <path id="パス_5" data-name="パス 5" d="M223.375-176.844l24.9,25.182,53.889-52.686v-11.331l-14.283-15.1-13.4,1.21Z" transform="translate(-223.375 257.011)" fill="#fff" stroke="#59c1bd" stroke-width="3"/>
        <path id="パス_6" data-name="パス 6" d="M316.441-228.2s37.25-44.234,45.244-41.371S338.4-244.495,338.4-244.495Z" transform="translate(-253.724 269.706)" fill="none" stroke="#59c1bd" stroke-width="3"/>
        <g id="楕円形_3" data-name="楕円形 3" transform="translate(56.234 35.622)" fill="none" stroke="#59c1bd" stroke-width="4">
          <ellipse cx="6.2" cy="5.856" rx="6.2" ry="5.856" stroke="none"/>
          <ellipse cx="6.2" cy="5.856" rx="4.2" ry="3.856" fill="none"/>
        </g>
      </g>
      <g id="グループ_4" data-name="グループ 4" transform="translate(251.253 -219.065)">
        <circle id="楕円形_2" data-name="楕円形 2" cx="11.122" cy="11.122" r="11.122" transform="translate(0 0.03)" fill="#fff"/>
        <path id="パス_3" data-name="パス 3" d="M223.632-445.534l.5,5.32a7.256,7.256,0,0,1,3.781-2.081c1.34-.311,3.9-.35,4.99.369.955.63-.152,4.277-.693,5.566a7.108,7.108,0,0,1-3.543,3.619c-.685.513,5.793,2.9,5.793,2.9s.6-.142.992-2.486a13.705,13.705,0,0,0,.359-2.605,9.964,9.964,0,0,0-.7-3.626,10.664,10.664,0,0,0-1.964-3.368,12.222,12.222,0,0,0-5.232-3.115l-2.06-.494Z" transform="translate(-213.616 445.534)" fill="#59c1bd" stroke="#59c1bd" stroke-width="1"/>
        <path id="パス_4" data-name="パス 4" d="M186.178-430.946l11.693,5.459a11.73,11.73,0,0,1-6.359,3.857c-2.848.535-6.993-.974-8.834-2.361-2.18-1.642-3.878-5.5-3.806-8.805a12.947,12.947,0,0,1,1.645-5.682l2.161-2.312a7.1,7.1,0,0,1,1.577-1.185,7.807,7.807,0,0,1,1.923-.652l1.352,10.889s1.975-3.657,3.1-4.442,4.731-1.548,4.731-1.548a7.676,7.676,0,0,1-2.607,4.931C190.455-431.1,186.178-430.946,186.178-430.946Z" transform="translate(-178.344 443.257)" fill="#59c1bd" stroke="#59c1bd" stroke-width="1"/>
      </g>
    </g>
  </g>
</svg>
